<mxfile host="app.diagrams.net" modified="2022-02-19T06:54:27.380Z" agent="5.0 (Windows NT 10.0; Win64; x64) AppleWebKit/537.36 (KHTML, like Gecko) Chrome/98.0.4758.82 Safari/537.36" etag="2UFSWdnGeDfSn67MxuKk" version="16.5.5" type="github">
  <diagram id="gPGmmSkIuNM7hHSW2nEX" name="ceph-mon">
    <mxGraphModel dx="981" dy="615" grid="1" gridSize="10" guides="1" tooltips="1" connect="1" arrows="1" fold="1" page="1" pageScale="1" pageWidth="827" pageHeight="1169" math="0" shadow="0">
      <root>
        <mxCell id="0" />
        <mxCell id="1" parent="0" />
        <mxCell id="hZt0JMwIf0L2Fr2vzAB7-2" value="" style="edgeStyle=orthogonalEdgeStyle;rounded=0;orthogonalLoop=1;jettySize=auto;html=1;" edge="1" parent="1" source="RQvdqafXlcqxsu7NmPzM-1" target="hZt0JMwIf0L2Fr2vzAB7-1">
          <mxGeometry relative="1" as="geometry" />
        </mxCell>
        <mxCell id="RQvdqafXlcqxsu7NmPzM-1" value="STATE_&lt;br&gt;PROBING" style="rounded=1;whiteSpace=wrap;html=1;strokeWidth=2;fillWeight=4;hachureGap=8;hachureAngle=45;sketch=0;fillColor=#FFFFFF;" parent="1" vertex="1">
          <mxGeometry x="40" y="120" width="120" height="40" as="geometry" />
        </mxCell>
        <mxCell id="hZt0JMwIf0L2Fr2vzAB7-4" value="" style="edgeStyle=orthogonalEdgeStyle;rounded=0;orthogonalLoop=1;jettySize=auto;html=1;" edge="1" parent="1" source="hZt0JMwIf0L2Fr2vzAB7-1" target="hZt0JMwIf0L2Fr2vzAB7-3">
          <mxGeometry relative="1" as="geometry" />
        </mxCell>
        <mxCell id="hZt0JMwIf0L2Fr2vzAB7-1" value="STATE_&lt;br&gt;SYNCHRONIZING" style="rounded=1;whiteSpace=wrap;html=1;strokeWidth=2;fillWeight=4;hachureGap=8;hachureAngle=45;sketch=0;fillColor=#FFFFFF;" vertex="1" parent="1">
          <mxGeometry x="200" y="120" width="120" height="40" as="geometry" />
        </mxCell>
        <mxCell id="hZt0JMwIf0L2Fr2vzAB7-6" value="" style="edgeStyle=orthogonalEdgeStyle;rounded=0;orthogonalLoop=1;jettySize=auto;html=1;" edge="1" parent="1" source="hZt0JMwIf0L2Fr2vzAB7-3" target="hZt0JMwIf0L2Fr2vzAB7-5">
          <mxGeometry relative="1" as="geometry" />
        </mxCell>
        <mxCell id="hZt0JMwIf0L2Fr2vzAB7-8" style="edgeStyle=orthogonalEdgeStyle;rounded=0;orthogonalLoop=1;jettySize=auto;html=1;entryX=0;entryY=0.5;entryDx=0;entryDy=0;curved=1;" edge="1" parent="1" source="hZt0JMwIf0L2Fr2vzAB7-3" target="hZt0JMwIf0L2Fr2vzAB7-7">
          <mxGeometry relative="1" as="geometry" />
        </mxCell>
        <mxCell id="hZt0JMwIf0L2Fr2vzAB7-3" value="STATE_&lt;br&gt;ELECTING" style="rounded=1;whiteSpace=wrap;html=1;strokeWidth=2;fillWeight=4;hachureGap=8;hachureAngle=45;sketch=0;fillColor=#FFFFFF;" vertex="1" parent="1">
          <mxGeometry x="360" y="120" width="120" height="40" as="geometry" />
        </mxCell>
        <mxCell id="hZt0JMwIf0L2Fr2vzAB7-10" value="" style="edgeStyle=orthogonalEdgeStyle;curved=1;rounded=0;orthogonalLoop=1;jettySize=auto;html=1;" edge="1" parent="1" source="hZt0JMwIf0L2Fr2vzAB7-5" target="hZt0JMwIf0L2Fr2vzAB7-9">
          <mxGeometry relative="1" as="geometry" />
        </mxCell>
        <mxCell id="hZt0JMwIf0L2Fr2vzAB7-5" value="STATE_&lt;br&gt;LEADER" style="rounded=1;whiteSpace=wrap;html=1;strokeWidth=2;fillWeight=4;hachureGap=8;hachureAngle=45;sketch=0;fillColor=#FFFFFF;" vertex="1" parent="1">
          <mxGeometry x="520" y="120" width="120" height="40" as="geometry" />
        </mxCell>
        <mxCell id="hZt0JMwIf0L2Fr2vzAB7-11" style="edgeStyle=orthogonalEdgeStyle;curved=1;rounded=0;orthogonalLoop=1;jettySize=auto;html=1;entryX=0;entryY=0.5;entryDx=0;entryDy=0;" edge="1" parent="1" source="hZt0JMwIf0L2Fr2vzAB7-7" target="hZt0JMwIf0L2Fr2vzAB7-9">
          <mxGeometry relative="1" as="geometry" />
        </mxCell>
        <mxCell id="hZt0JMwIf0L2Fr2vzAB7-7" value="STATE_&lt;br&gt;LEADER" style="rounded=1;whiteSpace=wrap;html=1;strokeWidth=2;fillWeight=4;hachureGap=8;hachureAngle=45;sketch=0;fillColor=#FFFFFF;" vertex="1" parent="1">
          <mxGeometry x="520" y="180" width="120" height="40" as="geometry" />
        </mxCell>
        <mxCell id="hZt0JMwIf0L2Fr2vzAB7-9" value="STATE_&lt;br&gt;SHUTDOWN" style="rounded=1;whiteSpace=wrap;html=1;strokeWidth=2;fillWeight=4;hachureGap=8;hachureAngle=45;sketch=0;fillColor=#FFFFFF;" vertex="1" parent="1">
          <mxGeometry x="680" y="120" width="120" height="40" as="geometry" />
        </mxCell>
      </root>
    </mxGraphModel>
  </diagram>
</mxfile>
